<svg xmlns="http://www.w3.org/2000/svg" width="1024" height="1024" viewBox="0 0 1024 1024">
<g>
<path d="M 0.00 0.00 L 1024.00 0.00 L 1024.00 1024.00 L 0.00 1024.00 ZM 539.58 683.68 C542.15,685.56 629.26,685.62 630.75,683.75 C631.29,683.06 632.04,678.99 632.41,674.71 C634.46,651.19 644.21,638.09 682.46,607.48 C713.26,582.83 725.75,570.16 744.30,544.74 C757.67,526.43 767.99,508.25 773.14,493.95 L 775.47 487.50 L 775.74 417.00 L 775.76 412.15 C776.00,350.72 776.03,343.83 772.69,341.21 C772.19,340.81 771.60,340.51 770.93,340.13 C764.64,336.60 755.35,342.49 749.97,353.41 C745.70,362.08 743.45,374.38 740.53,405.00 C737.47,437.14 737.46,438.57 740.11,449.67 C742.89,461.30 742.38,474.43 738.77,484.18 C735.57,492.84 725.85,507.34 712.74,523.02 C694.10,545.32 678.57,559.99 665.67,567.48 C661.41,569.95 660.68,570.11 659.37,568.80 C658.06,567.49 658.11,566.73 659.79,562.31 C662.61,554.89 667.04,548.97 680.99,534.00 C717.62,494.68 725.22,484.39 726.67,472.14 C727.74,463.14 724.00,456.97 717.53,457.02 C711.13,457.07 705.87,460.82 689.05,477.33 C679.95,486.27 670.25,495.42 667.50,497.66 C658.04,505.37 644.11,513.78 625.62,522.94 C615.42,527.99 601.69,535.69 595.11,540.05 C569.55,556.96 552.29,577.97 544.60,601.52 C539.53,617.07 538.85,622.69 538.30,653.43 C537.81,680.50 537.89,682.45 539.58,683.68 ZM 393.26 683.75 C394.02,684.72 404.38,685.00 438.97,685.00 C482.18,685.00 483.75,684.93 485.47,683.03 C487.11,681.22 487.21,679.01 486.74,654.78 C486.18,626.02 484.99,616.74 479.98,601.77 C471.29,575.85 455.73,557.10 427.91,539.02 C422.74,535.65 409.73,528.47 399.00,523.05 C367.68,507.22 357.79,500.05 333.91,475.84 C318.97,460.69 313.86,457.07 307.38,457.02 C298.33,456.96 294.56,468.52 299.66,480.73 C303.24,489.30 314.93,503.65 343.38,534.40 C355.28,547.27 359.84,552.96 362.50,558.28 C367.83,568.93 367.09,571.59 359.78,567.93 C344.99,560.50 321.76,537.55 300.16,509.03 C283.23,486.67 278.79,469.68 284.47,449.00 C285.30,445.98 285.98,439.69 285.99,435.02 C286.01,420.03 281.21,375.57 278.38,364.57 C273.45,345.39 259.50,333.41 251.45,341.45 L 249.00 343.91 L 249.00 414.24 C249.00,474.29 249.23,485.45 250.54,490.54 C252.83,499.43 262.67,518.94 271.70,532.50 C291.87,562.80 308.55,580.76 339.50,605.49 C380.18,638.01 389.95,650.88 391.67,674.24 C392.00,678.78 392.72,683.06 393.26,683.75 ZM 402.73 504.99 C406.45,507.14 409.89,508.92 410.38,508.95 C410.86,508.98 408.16,505.74 404.38,501.75 C370.24,465.73 349.66,424.23 341.76,375.50 C339.80,363.38 339.63,357.77 339.26,292.37 L 338.86 222.25 L 344.68 221.57 C355.30,220.33 389.31,213.12 403.65,209.06 C440.86,198.55 475.65,184.44 502.94,168.79 L 512.37 163.38 L 520.94 168.31 C565.17,193.76 621.91,212.99 676.75,221.12 L 685.00 222.35 L 684.99 286.42 C684.99,321.67 684.53,355.58 683.98,361.78 C680.56,400.42 666.74,439.05 644.88,471.06 C639.53,478.91 630.55,489.98 618.26,503.89 L 613.50 509.28 L 618.74 506.63 C629.14,501.36 648.28,487.54 658.07,478.24 C684.86,452.77 698.66,422.66 705.64,374.50 C707.15,364.10 707.43,351.95 707.75,283.46 C708.10,208.19 708.03,204.34 706.31,202.81 C705.13,201.76 699.33,200.46 689.61,199.07 C626.21,189.95 566.91,169.74 523.59,142.50 C512.98,135.82 512.62,135.68 510.09,137.20 C508.67,138.06 502.55,141.79 496.50,145.48 C453.76,171.57 386.75,193.16 325.62,200.55 C322.98,200.87 321.05,200.62 319.64,201.36 C315.75,203.40 315.81,212.97 316.15,262.71 C316.20,268.93 316.24,275.79 316.29,283.33 C316.77,366.40 317.03,371.31 322.09,394.68 C333.44,447.06 356.10,478.05 402.73,504.99 ZM 88.46 857.25 L 87.82 861.00 L 102.85 861.00 C111.12,861.00 118.09,860.66 118.34,860.25 C119.12,858.95 125.36,828.63 125.43,825.75 C125.50,823.01 125.52,823.00 132.77,823.00 C139.79,823.00 140.02,823.08 139.52,825.25 C139.24,826.49 137.66,834.03 136.02,842.00 C134.37,849.97 132.79,857.51 132.49,858.75 L 131.96 861.00 L 147.87 861.00 C162.10,861.00 163.86,860.81 164.46,859.25 C164.84,858.29 166.42,851.42 167.98,844.00 C171.15,828.89 177.49,799.75 179.01,793.25 C179.55,790.91 180.50,786.86 181.11,784.25 C181.72,781.64 182.42,778.70 182.68,777.73 C183.12,776.07 182.02,775.97 166.33,776.23 L 149.50 776.50 L 145.57 794.75 L 141.64 813.00 L 134.75 813.00 C128.66,813.00 127.93,812.80 128.40,811.25 C128.69,810.29 130.55,802.32 132.53,793.55 C134.51,784.77 136.36,777.23 136.64,776.77 C136.92,776.32 129.80,776.07 120.82,776.22 L 104.50 776.50 L 96.80 815.00 C92.57,836.17 88.81,855.19 88.46,857.25 ZM 413.12 391.44 C439.79,418.47 446.74,425.00 448.84,425.00 C452.42,425.00 464.00,413.60 464.00,410.07 C464.00,408.15 457.91,401.48 437.34,380.86 L 410.69 354.14 L 437.09 327.00 C455.41,308.17 463.60,299.07 463.83,297.29 C464.08,295.31 462.96,293.51 458.86,289.36 C456.09,286.56 454.37,284.46 452.27,283.96 C447.70,282.85 441.33,289.22 418.54,312.01 C416.88,313.67 415.14,315.42 413.29,317.25 C381.61,348.90 380.00,350.68 380.00,354.19 C380.00,357.69 381.69,359.59 413.12,391.44 ZM 566.09 418.51 C570.62,423.23 573.03,425.00 574.91,425.00 C576.99,425.00 584.20,418.31 610.96,391.54 C642.45,360.04 644.40,357.88 644.40,354.50 C644.40,351.12 642.45,348.96 610.96,317.46 C579.38,285.87 577.31,284.00 573.90,284.00 C570.83,284.00 569.53,284.81 565.15,289.44 C562.06,292.70 560.00,295.79 560.00,297.15 C560.00,298.78 567.62,307.05 587.23,326.72 L 614.47 354.02 L 587.83 380.76 C573.18,395.47 560.89,408.52 560.53,409.76 C559.98,411.61 561.01,413.22 566.09,418.51 ZM 315.01 859.75 C315.00,860.69 318.44,861.00 328.89,861.00 C330.17,861.00 331.34,861.01 332.41,861.01 C338.24,861.05 341.07,861.07 342.73,859.69 C344.59,858.13 344.96,854.78 346.45,847.68 L 348.50 837.86 L 353.88 849.43 L 359.27 861.00 L 375.07 861.00 C391.34,861.00 393.58,860.45 390.72,857.19 C389.90,856.26 386.63,850.55 383.44,844.50 C380.26,838.45 376.28,831.56 374.61,829.19 C372.67,826.44 371.96,824.63 372.64,824.19 C374.36,823.08 394.00,808.66 396.35,806.78 C398.42,805.13 398.18,805.07 389.50,805.05 L 380.50 805.03 L 366.55 815.01 C358.87,820.51 352.23,825.00 351.78,825.00 C350.89,825.00 350.96,824.58 353.89,812.00 C354.98,807.33 356.82,799.22 357.98,794.00 C359.14,788.78 360.52,782.61 361.04,780.31 C361.15,779.86 361.25,779.43 361.34,779.03 C362.02,776.10 362.42,774.39 361.75,773.39 C360.81,771.98 357.74,771.99 350.34,772.00 C349.61,772.00 348.85,772.00 348.04,772.00 L 334.08 772.00 L 333.07 775.75 C329.74,788.17 315.02,856.59 315.01,859.75 ZM 676.38 868.05 C684.68,870.03 701.88,868.18 708.90,864.55 C713.32,862.26 718.87,857.16 721.56,852.91 C724.63,848.04 726.25,842.11 730.53,820.00 C732.50,809.83 734.48,799.59 734.93,797.25 L 735.76 793.00 L 728.88 793.00 C723.35,793.00 722.00,793.30 722.00,794.54 C722.00,797.78 712.76,839.76 710.90,845.00 C709.82,848.03 708.80,851.17 708.64,852.00 C708.21,854.13 702.16,856.90 697.82,856.95 C693.18,857.01 690.00,853.42 690.00,848.12 C690.00,842.80 693.59,820.90 697.60,801.80 C698.37,798.12 699.00,794.62 699.00,794.02 C699.00,793.27 694.23,792.97 684.00,793.05 C675.75,793.12 669.00,793.45 669.00,793.77 C669.00,794.09 667.66,800.91 666.02,808.93 C659.27,841.91 658.31,853.72 661.91,859.61 C663.82,862.74 670.52,866.65 676.38,868.05 ZM 180.40 860.03 C186.59,863.19 198.55,862.46 205.88,858.47 C208.82,856.87 211.45,854.98 211.72,854.28 C212.55,852.13 214.00,852.86 214.00,855.42 C214.00,860.84 214.36,861.00 226.55,861.00 C232.78,861.00 238.10,860.65 238.36,860.23 C240.01,857.56 246.00,827.99 246.00,822.52 C246.00,816.79 245.67,815.69 243.03,812.68 C233.63,801.98 210.38,800.06 192.24,808.47 C186.95,810.93 185.96,812.25 184.55,818.75 L 183.84 822.00 L 207.72 822.00 L 208.61 817.75 C209.36,814.15 209.91,813.45 212.20,813.19 C218.18,812.50 220.02,815.67 218.38,823.88 C217.75,826.99 217.74,827.00 211.12,827.02 C193.67,827.07 180.27,831.61 176.21,838.85 C173.74,843.23 173.23,851.22 175.15,855.42 C175.78,856.80 178.14,858.88 180.40,860.03 ZM 417.23 860.45 C426.93,863.06 445.16,861.64 457.13,857.35 C461.66,855.73 461.77,855.58 462.38,850.60 C462.73,847.79 463.28,844.49 463.62,843.25 C464.23,841.01 464.17,841.00 452.87,841.01 L 441.50 841.03 L 438.73 846.04 C435.96,851.07 432.36,853.74 429.71,852.72 C427.87,852.01 426.84,845.47 427.64,839.60 L 428.27 835.00 L 445.46 835.00 C462.01,835.00 462.73,834.92 464.70,832.75 C469.54,827.43 470.47,819.93 467.00,814.23 C464.66,810.40 457.22,805.41 451.52,803.86 C445.08,802.11 426.63,803.34 419.66,805.99 C405.95,811.20 396.98,823.05 397.02,835.91 C397.07,849.12 403.31,856.70 417.23,860.45 ZM 730.05 860.15 L 728.30 867.80 L 741.10 867.94 L 753.90 868.08 L 754.89 864.29 C755.44,862.20 757.02,855.06 758.40,848.42 C759.79,841.77 761.34,835.25 761.85,833.92 C763.17,830.45 766.61,827.64 768.60,828.40 C770.04,828.95 770.18,830.05 769.61,836.30 C769.25,840.28 767.84,848.93 766.48,855.50 C765.12,862.08 764.00,867.58 764.00,867.73 C764.00,867.88 770.05,868.00 777.44,868.00 L 790.88 868.00 L 791.53 863.25 C791.89,860.64 792.56,856.92 793.03,855.00 C793.50,853.08 794.85,845.98 796.03,839.24 C798.12,827.28 798.13,826.90 796.34,823.85 C792.99,818.14 789.71,816.50 781.59,816.50 C775.11,816.50 773.75,816.86 769.03,819.79 C766.12,821.60 763.69,822.95 763.62,822.79 C761.86,818.63 761.50,818.51 749.85,818.22 L 738.42 817.94 L 735.11 835.22 C733.29,844.72 731.01,855.94 730.05,860.15 ZM 265.69 860.03 C276.28,864.17 308.00,861.28 309.41,856.05 C310.60,851.63 312.30,840.97 311.88,840.55 C311.62,840.28 307.09,839.77 301.83,839.40 L 292.26 838.72 L 290.30 844.61 C288.09,851.26 284.45,854.40 281.26,852.40 C278.58,850.72 278.60,843.95 281.34,831.32 C283.73,820.28 286.69,814.00 289.49,814.00 C293.32,814.00 294.00,815.15 294.00,821.64 L 294.00 828.07 L 304.23 827.78 L 314.46 827.50 L 315.85 820.28 C316.61,816.30 317.01,812.48 316.74,811.78 C316.47,811.07 313.16,808.95 309.38,807.06 C303.55,804.15 301.19,803.56 293.96,803.20 C275.12,802.26 259.25,810.15 251.84,824.15 C249.99,827.64 249.53,830.07 249.53,836.50 C249.53,848.92 254.03,855.47 265.69,860.03 ZM 570.39 860.97 C577.07,862.29 593.00,862.07 600.14,860.56 C612.63,857.91 618.36,853.47 619.55,845.53 C620.84,836.92 618.00,833.76 602.30,826.39 C591.63,821.37 591.00,820.91 591.00,818.11 C591.00,815.08 593.20,811.99 595.32,812.02 C597.96,812.05 599.25,813.83 598.81,816.84 C598.37,819.81 598.52,819.95 603.42,821.00 C606.20,821.59 611.00,822.34 614.08,822.67 C620.57,823.34 620.70,823.19 621.67,813.90 L 622.27 808.14 L 618.69 806.64 C606.92,801.72 587.87,802.34 576.31,808.02 C568.88,811.67 565.81,815.95 565.26,823.41 C564.69,831.19 567.08,834.20 577.77,839.16 C582.57,841.39 587.57,843.72 588.87,844.34 C590.18,844.96 591.47,846.07 591.75,846.80 C592.62,849.05 590.21,852.91 587.52,853.58 C584.07,854.45 582.00,852.49 582.00,848.38 L 582.00 845.00 L 576.75 844.99 C573.86,844.99 569.15,844.70 566.28,844.36 C561.23,843.75 561.02,843.82 559.98,846.54 C559.39,848.09 558.65,851.27 558.33,853.61 L 557.75 857.86 L 562.01 859.00 C564.36,859.63 568.13,860.52 570.39,860.97 ZM 870.33 886.57 C869.89,887.74 871.34,888.00 878.34,888.00 C893.01,888.00 903.23,884.68 909.62,877.84 C912.35,874.92 920.00,863.66 920.00,862.56 C920.00,862.34 922.40,858.19 925.33,853.33 C932.95,840.72 940.29,828.25 943.30,822.82 L 945.89 818.13 L 943.19 817.63 C941.71,817.35 938.50,817.44 936.06,817.81 L 931.62 818.50 L 923.88 833.48 C917.08,846.63 914.05,851.18 913.98,848.33 C913.97,847.88 913.30,841.65 912.49,834.50 C911.68,827.35 911.02,820.71 911.01,819.75 C911.00,818.17 909.68,818.00 897.37,818.00 L 883.74 818.00 L 884.37 823.75 C884.72,826.91 885.47,835.12 886.04,842.00 C886.61,848.88 887.51,858.40 888.04,863.17 C888.57,867.93 888.75,872.49 888.45,873.28 C887.65,875.34 883.77,876.89 877.55,877.62 C872.38,878.23 872.15,878.39 871.53,881.70 C871.17,883.59 870.64,885.79 870.33,886.57 ZM 467.00 860.58 C467.00,860.84 473.41,860.93 481.23,860.78 L 495.47 860.50 L 496.11 857.00 C501.28,828.88 504.02,819.49 507.29,818.63 C511.14,817.63 512.00,818.90 512.00,825.61 L 512.00 832.00 L 531.64 832.00 L 534.32 823.05 C538.25,809.91 538.00,808.15 531.75,805.54 C524.39,802.47 516.41,803.95 509.25,809.71 C505.46,812.76 505.00,812.91 505.00,811.13 C505.00,810.02 504.54,808.84 503.98,808.49 C503.42,808.14 503.20,807.49 503.48,807.04 C504.41,805.52 500.94,805.00 489.95,805.00 L 479.06 805.00 L 477.57 810.25 C476.34,814.62 467.00,859.07 467.00,860.58 ZM 848.00 867.97 C849.48,868.59 855.56,868.85 862.88,868.61 C876.11,868.17 877.25,867.71 876.76,863.00 C876.53,860.78 875.94,860.44 871.50,860.00 C865.23,859.37 865.11,858.84 867.98,843.18 C870.34,830.26 870.80,826.77 872.66,825.68 C873.53,825.17 874.71,825.18 876.53,825.00 C881.45,824.51 881.50,824.46 881.81,820.75 L 882.12 817.00 L 872.91 817.00 L 873.56 813.25 C873.92,811.19 874.57,807.81 875.00,805.75 L 875.79 802.00 L 869.14 802.02 C861.66,802.03 861.54,802.09 857.71,807.22 C854.99,810.88 844.44,817.00 840.87,817.00 C839.01,817.00 838.00,818.97 838.00,822.58 C838.00,824.68 838.46,825.00 841.50,825.00 C843.42,825.00 845.00,825.16 845.00,825.36 C845.00,825.56 844.53,828.15 843.94,831.11 C841.73,842.44 840.03,853.64 840.02,857.11 C840.00,861.15 843.70,866.17 848.00,867.97 ZM 798.22 865.75 C797.77,867.99 797.82,868.00 810.82,868.00 C818.16,868.00 824.14,867.58 824.48,867.03 C825.13,865.99 834.00,821.51 834.00,819.32 C834.00,818.30 831.43,818.00 822.75,818.01 C816.56,818.02 810.59,818.27 809.47,818.57 C807.69,819.05 806.90,821.84 803.05,841.31 C800.64,853.51 798.46,864.51 798.22,865.75 ZM 542.02 809.25 C542.01,809.66 545.79,810.00 550.41,810.00 L 558.83 810.00 L 561.50 802.75 C562.97,798.76 564.56,794.38 565.03,793.00 C566.09,789.93 569.57,777.51 570.43,773.72 L 571.06 770.93 L 560.34 771.22 L 549.63 771.50 L 545.84 790.00 C543.75,800.17 542.04,808.84 542.02,809.25 ZM 812.63 809.93 C816.42,812.91 826.04,812.79 831.48,809.71 C838.54,805.71 838.80,798.22 831.99,794.69 C827.49,792.35 817.74,792.91 814.95,795.66 C813.93,796.67 812.40,798.08 811.55,798.79 C810.64,799.55 810.00,801.68 810.00,803.97 C810.00,806.98 810.60,808.32 812.63,809.93 ZM 212.20 848.25 C210.72,849.97 205.98,850.65 204.67,849.33 C202.16,846.82 206.59,834.61 210.39,833.59 C214.71,832.44 217.17,832.89 216.61,834.75 C216.33,835.71 215.56,838.75 214.90,841.50 C214.25,844.25 213.04,847.29 212.20,848.25 ZM 441.00 821.49 L 439.77 828.00 L 434.89 828.00 C430.48,828.00 430.00,827.78 430.03,825.75 C430.09,821.84 435.28,812.53 437.59,812.20 C441.43,811.65 442.37,814.22 441.00,821.49 Z" fill="rgb(2,13,19)"/>
<path d="M 88.46 857.25 C88.81,855.19 92.57,836.17 96.80,815.00 L 104.50 776.50 L 120.82 776.22 C126.77,776.12 131.91,776.20 134.61,776.39 C134.22,776.90 134.00,777.86 134.00,779.18 C134.00,780.93 133.51,783.96 132.91,785.93 C132.31,787.89 131.38,790.96 130.85,792.74 C130.31,794.53 130.22,796.55 130.65,797.24 C131.14,798.04 131.75,797.04 132.31,794.50 C132.47,793.81 132.69,792.83 132.95,791.69 C132.81,792.30 132.67,792.92 132.53,793.55 C131.61,797.61 130.72,801.50 130.00,804.60 C130.00,804.51 130.00,804.40 130.00,804.30 C130.00,802.29 129.71,801.89 128.87,802.73 C128.24,803.36 128.01,804.57 128.34,805.43 C128.77,806.55 129.16,807.04 129.46,806.92 C128.90,809.26 128.52,810.85 128.40,811.25 C127.93,812.80 128.66,813.00 134.75,813.00 L 141.64 813.00 L 145.57 794.75 L 149.50 776.50 L 166.33 776.23 C175.50,776.08 179.68,776.05 181.49,776.38 C181.20,776.96 180.90,778.05 180.54,779.75 C180.13,781.65 180.24,783.00 180.81,783.00 C181.10,783.00 181.44,782.41 181.74,781.57 C181.53,782.44 181.31,783.37 181.11,784.25 C180.79,785.63 180.37,787.41 179.97,789.13 C179.97,789.09 179.97,789.04 179.97,789.00 C179.97,787.02 179.77,786.81 179.00,788.00 C178.47,788.83 178.03,790.62 178.03,792.00 C178.03,793.98 178.23,794.19 179.00,793.00 C179.04,792.94 179.07,792.88 179.11,792.82 L 179.01 793.25 C178.39,795.88 176.99,802.21 175.33,809.82 C175.65,807.83 175.78,806.45 175.61,806.28 C175.30,805.97 174.88,806.34 174.66,807.11 C174.45,807.87 173.77,810.11 173.14,812.07 C172.51,814.04 172.00,817.27 172.00,819.26 C172.00,821.25 171.55,823.16 171.00,823.50 C170.45,823.84 170.00,825.31 170.00,826.76 C170.00,828.27 170.36,828.99 170.84,828.45 C171.10,828.16 171.52,826.88 172.02,825.07 C170.52,832.04 169.06,838.84 167.98,844.00 C166.42,851.42 164.84,858.29 164.46,859.25 C163.86,860.81 162.10,861.00 147.87,861.00 L 131.96 861.00 L 132.49 858.75 C132.79,857.51 134.37,849.97 136.02,842.00 C137.66,834.03 139.24,826.49 139.52,825.25 C140.02,823.08 139.79,823.00 132.77,823.00 C126.14,823.00 125.56,823.01 125.45,825.11 C125.33,825.04 125.17,825.00 125.00,825.00 C124.45,825.00 124.01,826.24 124.02,827.75 C124.03,829.86 124.24,830.16 124.96,829.06 C124.02,834.55 121.86,845.26 120.24,852.59 C120.28,852.40 120.32,852.21 120.35,852.03 C120.99,848.81 120.93,848.71 119.55,850.53 C118.73,851.62 118.09,854.30 118.12,856.50 C118.16,859.87 118.29,860.11 118.92,858.00 C119.13,857.29 119.41,856.24 119.67,855.13 C119.02,857.98 118.52,859.94 118.34,860.25 C118.09,860.66 111.12,861.00 102.85,861.00 L 87.82 861.00 ZM 315.01 859.75 C315.02,856.59 329.74,788.17 333.07,775.75 L 334.08 772.00 L 348.04 772.00 C348.85,772.00 349.61,772.00 350.34,772.00 C356.59,771.99 359.75,771.98 361.15,772.83 C361.00,773.12 360.83,773.68 360.64,774.50 C360.27,776.15 359.53,779.42 358.98,781.76 C358.44,784.11 358.00,787.12 358.00,788.46 C358.00,789.79 357.55,791.16 357.00,791.50 C356.45,791.84 356.00,792.99 356.00,794.06 C356.00,795.13 356.45,796.00 357.00,796.00 C357.21,796.00 357.40,795.95 357.56,795.86 C356.51,800.58 355.11,806.75 354.14,810.93 C354.21,810.51 354.29,810.03 354.38,809.50 L 355.02 805.50 L 353.43 808.33 C352.56,809.89 352.12,811.87 352.45,812.73 C352.92,813.95 353.24,814.25 353.57,813.38 C352.85,816.46 352.33,818.72 351.97,820.39 C351.85,819.61 351.46,819.22 351.00,819.50 C350.45,819.84 350.00,821.02 350.00,822.12 C350.00,823.22 350.45,823.84 351.00,823.50 C351.15,823.40 351.30,823.24 351.43,823.03 C351.12,824.89 351.32,825.00 351.78,825.00 C352.23,825.00 358.87,820.51 366.55,815.01 L 380.50 805.03 L 389.50 805.05 C398.18,805.07 398.42,805.13 396.35,806.78 C394.00,808.66 374.36,823.08 372.64,824.19 C371.96,824.63 372.67,826.44 374.61,829.19 C376.28,831.56 380.26,838.45 383.44,844.50 C386.63,850.55 389.90,856.26 390.72,857.19 C393.58,860.45 391.34,861.00 375.07,861.00 L 359.27 861.00 L 353.88 849.43 L 348.50 837.86 L 347.90 840.75 C347.90,839.70 347.61,839.00 347.00,839.00 C346.45,839.00 346.03,840.69 346.07,842.75 C346.13,845.76 346.31,846.10 347.00,844.50 C347.08,844.31 347.16,844.11 347.23,843.92 L 346.45 847.68 C346.42,847.83 346.39,847.97 346.36,848.11 C346.29,847.54 345.97,847.61 345.32,848.15 C344.60,848.75 344.00,850.34 344.00,851.68 C344.00,853.89 344.74,854.07 345.40,852.84 C344.63,856.53 344.06,858.57 342.73,859.69 C341.07,861.07 338.24,861.05 332.41,861.01 C331.34,861.01 330.17,861.00 328.89,861.00 C318.44,861.00 315.00,860.69 315.01,859.75 ZM 180.40 860.03 C178.14,858.88 175.78,856.80 175.15,855.42 C173.23,851.22 173.74,843.23 176.21,838.85 C180.27,831.61 193.67,827.07 211.12,827.02 C217.74,827.00 217.75,826.99 218.38,823.88 C220.02,815.67 218.18,812.50 212.20,813.19 C209.91,813.45 209.36,814.15 208.61,817.75 L 208.27 819.35 C208.50,818.04 208.37,817.00 207.97,817.00 C207.19,817.00 206.00,819.47 206.00,821.08 C206.00,821.57 206.10,821.86 206.27,822.00 L 183.84 822.00 L 184.55 818.75 C185.96,812.25 186.95,810.93 192.24,808.47 C210.38,800.06 233.63,801.98 243.03,812.68 C245.67,815.69 246.00,816.79 246.00,822.52 C246.00,823.17 245.91,824.17 245.76,825.43 C245.61,825.20 245.34,825.53 244.89,826.31 C244.31,827.31 244.08,828.77 244.38,829.56 C244.60,830.11 244.79,830.49 244.98,830.72 C244.68,832.49 244.34,834.42 243.97,836.42 C243.90,835.04 243.65,834.99 243.00,836.00 C242.47,836.83 242.02,838.31 242.02,839.31 C242.01,840.30 242.45,840.84 243.00,840.50 C243.08,840.45 243.15,840.38 243.22,840.29 C242.15,845.73 240.95,851.25 239.96,855.13 C239.97,854.87 239.97,854.57 239.97,854.25 C239.94,851.89 239.79,851.75 238.92,853.26 C238.35,854.22 238.17,855.46 238.50,856.01 C238.92,856.68 239.25,857.00 239.48,856.94 C239.02,858.61 238.63,859.79 238.36,860.23 C238.10,860.65 232.78,861.00 226.55,861.00 C214.36,861.00 214.00,860.84 214.00,855.42 C214.00,852.86 212.55,852.13 211.72,854.28 C211.45,854.98 208.82,856.87 205.88,858.47 C198.55,862.46 186.59,863.19 180.40,860.03 ZM 417.23 860.45 C403.31,856.70 397.07,849.12 397.02,835.91 C396.98,823.05 405.95,811.20 419.66,805.99 C426.63,803.34 445.08,802.11 451.52,803.86 C457.22,805.41 464.66,810.40 467.00,814.23 C469.41,818.19 469.70,823.02 468.03,827.39 C468.55,825.63 468.91,823.71 468.85,822.30 C468.72,818.90 468.65,818.81 468.26,821.50 C468.02,823.15 467.47,824.95 467.05,825.50 C466.62,826.05 465.98,827.74 465.62,829.25 C465.30,830.60 465.20,831.73 465.38,831.96 C465.16,832.23 464.94,832.49 464.70,832.75 C462.73,834.92 462.01,835.00 445.46,835.00 L 428.27 835.00 L 427.64 839.60 C427.61,839.83 427.58,840.05 427.56,840.27 C427.44,837.75 427.17,836.00 426.84,836.00 C425.85,836.00 425.69,849.36 426.67,850.33 C427.03,850.70 427.38,851.00 427.44,851.00 C427.48,851.00 427.53,849.48 427.56,847.24 C427.91,850.13 428.68,852.32 429.71,852.72 C432.36,853.74 435.96,851.07 438.73,846.04 L 441.50 841.03 L 452.87 841.01 C458.34,841.01 461.18,841.01 462.58,841.26 C462.24,841.70 462.01,842.65 462.02,843.75 C462.03,845.89 462.24,846.17 463.00,845.00 C463.14,844.79 463.26,844.58 463.36,844.37 C463.21,845.13 463.04,846.09 462.87,847.13 C462.82,846.96 462.44,847.39 461.58,848.44 C460.71,849.51 460.00,851.65 460.00,853.19 C460.00,854.37 460.26,855.39 460.64,855.81 C459.92,856.34 458.84,856.74 457.13,857.35 C445.16,861.64 426.93,863.06 417.23,860.45 ZM 265.69 860.03 C254.03,855.47 249.53,848.92 249.53,836.50 C249.53,830.07 249.99,827.64 251.84,824.15 C259.25,810.15 275.12,802.26 293.96,803.20 C301.19,803.56 303.55,804.15 309.38,807.06 C313.16,808.95 316.47,811.07 316.74,811.78 C316.86,812.09 316.85,813.04 316.73,814.36 C316.60,814.25 316.23,814.84 315.55,816.00 C314.74,817.38 314.05,819.60 314.04,820.95 C313.99,824.04 315.18,822.78 315.99,819.49 C315.95,819.75 315.90,820.01 315.85,820.28 L 314.46 827.50 L 304.23 827.78 L 294.00 828.07 L 294.00 821.64 C294.00,815.15 293.32,814.00 289.49,814.00 C286.81,814.00 284.00,819.71 281.67,829.82 C282.15,826.87 282.09,824.57 281.37,825.29 C279.78,826.89 276.93,846.11 277.82,849.26 C278.24,850.71 278.69,849.04 279.11,844.50 C279.47,840.65 280.26,835.70 280.87,833.50 L 280.91 833.38 C278.61,844.69 278.73,850.81 281.26,852.40 C284.45,854.40 288.09,851.26 290.30,844.61 L 292.26 838.72 L 301.83 839.40 C306.30,839.71 310.23,840.13 311.48,840.41 C311.35,840.50 311.19,840.70 311.00,841.00 C310.47,841.83 310.03,843.85 310.03,845.50 C310.03,847.80 310.26,848.15 311.00,847.00 C311.11,846.83 311.22,846.60 311.32,846.34 C310.99,848.45 310.57,850.83 310.14,852.88 C310.16,852.76 310.18,852.63 310.19,852.49 C310.45,850.31 310.20,849.10 309.55,849.31 C308.97,849.50 308.36,851.35 308.18,853.43 C307.88,857.04 308.86,857.43 309.60,855.31 C309.53,855.57 309.47,855.82 309.41,856.05 C308.00,861.28 276.28,864.17 265.69,860.03 ZM 570.39 860.97 C568.13,860.52 564.36,859.63 562.01,859.00 L 557.75 857.86 L 558.33 853.61 C558.65,851.27 559.39,848.09 559.98,846.54 C561.02,843.82 561.23,843.75 566.28,844.36 C569.15,844.70 573.86,844.99 576.75,844.99 L 582.00 845.00 L 582.00 848.38 C582.00,852.49 584.07,854.45 587.52,853.58 C590.21,852.91 592.62,849.05 591.75,846.80 C591.47,846.07 590.18,844.96 588.87,844.34 C587.57,843.72 582.57,841.39 577.77,839.16 C567.08,834.20 564.69,831.19 565.26,823.41 C565.81,815.95 568.88,811.67 576.31,808.02 C587.87,802.34 606.92,801.72 618.69,806.64 L 622.27 808.14 L 621.94 811.30 C621.84,810.03 621.53,809.17 621.00,809.50 C620.45,809.84 620.01,812.00 620.02,814.31 C620.03,817.38 620.29,818.10 621.00,817.00 C621.17,816.74 621.32,816.40 621.44,816.02 C620.63,823.21 620.03,823.29 614.08,822.67 C611.00,822.34 606.20,821.59 603.42,821.00 C598.52,819.95 598.37,819.81 598.81,816.84 C599.25,813.83 597.96,812.05 595.32,812.02 C593.20,811.99 591.00,815.08 591.00,818.11 C591.00,820.91 591.63,821.37 602.30,826.39 C612.34,831.10 617.12,834.10 618.93,837.89 C618.30,837.05 618.03,838.48 618.02,842.69 C618.01,846.10 617.55,849.16 617.00,849.50 C616.45,849.84 616.00,850.54 616.00,851.06 C616.00,852.35 616.56,852.43 617.23,851.72 C614.36,855.95 608.92,858.70 600.14,860.56 C593.00,862.07 577.07,862.29 570.39,860.97 ZM 467.00 860.58 C467.00,859.07 476.34,814.62 477.57,810.25 L 479.06 805.00 L 489.95 805.00 C500.94,805.00 504.41,805.52 503.48,807.04 C503.20,807.49 503.42,808.14 503.98,808.49 C504.54,808.84 505.00,810.02 505.00,811.13 C505.00,812.91 505.46,812.76 509.25,809.71 C516.41,803.95 524.39,802.47 531.75,805.54 C536.32,807.45 537.69,808.91 536.54,814.72 C536.60,814.03 536.56,813.44 536.40,813.08 C535.87,811.83 535.56,812.03 534.96,814.00 C534.54,815.38 534.15,817.29 534.10,818.25 C534.04,819.21 534.24,820.00 534.52,820.00 C534.87,820.00 535.26,819.44 535.60,818.62 C535.24,819.93 534.82,821.40 534.32,823.05 L 533.91 824.44 C534.09,823.09 533.79,822.01 533.00,822.50 C532.45,822.84 532.01,824.33 532.02,825.81 C532.03,827.91 532.24,828.17 533.00,827.00 C533.11,826.83 533.21,826.65 533.30,826.47 L 531.64 832.00 L 512.00 832.00 L 512.00 825.61 C512.00,818.90 511.14,817.63 507.29,818.63 C506.36,818.88 505.48,819.80 504.57,821.65 C504.57,821.22 504.31,821.06 503.81,821.23 C503.16,821.45 502.45,822.16 502.23,822.81 C501.75,824.25 502.96,824.30 503.83,823.34 C503.19,824.98 502.52,827.08 501.82,829.74 C502.16,827.86 501.89,825.95 501.00,826.50 C500.45,826.84 500.01,828.55 500.02,830.31 C500.03,832.74 500.26,833.14 501.00,832.00 C501.20,831.69 501.37,831.33 501.50,830.94 C500.42,835.16 499.24,840.66 497.87,847.67 C497.74,847.33 497.45,847.22 497.00,847.50 C496.45,847.84 496.01,849.10 496.02,850.31 C496.03,852.09 496.21,852.22 497.00,851.00 C497.13,850.80 497.25,850.60 497.35,850.39 C496.95,852.47 496.54,854.67 496.11,857.00 L 495.99 857.64 C496.00,857.55 496.00,857.47 496.00,857.38 C496.00,855.97 495.56,855.15 495.00,855.50 C494.45,855.84 494.00,857.24 494.00,858.62 C494.00,859.61 494.22,860.31 494.54,860.52 L 481.23 860.78 C473.41,860.93 467.00,860.84 467.00,860.58 ZM 542.02 809.25 C542.04,808.84 543.75,800.17 545.84,790.00 L 549.63 771.50 L 560.34 771.22 L 571.06 770.93 L 570.43 773.72 C569.98,775.68 568.83,779.96 567.69,784.05 C567.86,783.11 567.88,782.24 567.72,781.80 C567.18,780.35 567.08,780.56 564.94,788.00 C564.23,790.47 563.28,792.93 562.83,793.45 C562.37,793.97 562.00,795.53 562.00,796.90 C562.00,799.42 562.75,799.08 563.78,796.51 C563.12,798.32 562.31,800.53 561.54,802.63 C561.81,801.50 561.90,800.56 561.62,800.29 C561.31,799.97 560.78,800.57 560.45,801.61 C560.12,802.65 559.44,804.28 558.93,805.24 C558.42,806.19 558.00,807.20 558.00,807.49 C558.00,807.77 558.42,808.00 558.92,808.00 C559.23,808.00 559.63,807.48 560.04,806.71 L 558.83 810.00 L 550.41 810.00 C545.79,810.00 542.01,809.66 542.02,809.25 ZM 212.20 848.25 C213.04,847.29 214.25,844.25 214.90,841.50 C215.56,838.75 216.33,835.71 216.61,834.75 C217.17,832.89 214.71,832.44 210.39,833.59 C209.16,833.92 207.86,835.43 206.75,837.40 C206.76,837.21 206.45,837.28 205.78,837.53 C202.95,838.62 200.77,846.43 202.75,848.42 C203.11,848.78 203.63,847.52 204.01,845.52 C203.81,847.23 203.98,848.65 204.67,849.33 C205.98,850.65 210.72,849.97 212.20,848.25 ZM 441.00 821.49 C442.37,814.22 441.43,811.65 437.59,812.20 C436.16,812.41 433.64,816.04 431.90,819.70 C432.19,818.86 432.76,817.50 433.25,816.50 C434.17,814.63 434.09,814.63 431.99,816.65 C430.58,818.01 430.05,819.28 430.56,820.10 C430.95,820.72 431.19,820.96 431.40,820.81 C430.96,821.83 430.60,822.83 430.36,823.74 C430.44,822.54 430.15,822.46 429.32,823.15 C428.60,823.75 428.00,825.09 428.00,826.12 C428.00,828.84 429.40,828.41 430.03,825.93 C430.04,827.79 430.61,828.00 434.89,828.00 L 439.77 828.00 ZM 671.20 866.28 C667.03,864.45 663.26,861.84 661.91,859.61 C658.31,853.72 659.27,841.91 666.02,808.93 C667.66,800.91 669.00,794.09 669.00,793.77 C669.00,793.59 671.12,793.41 674.44,793.27 C673.22,793.47 672.38,793.81 671.76,794.39 C670.42,795.65 670.11,798.03 669.18,802.50 C667.21,811.86 666.10,817.49 665.11,823.00 C664.57,826.03 663.65,830.90 663.07,833.83 C662.48,836.76 662.00,843.41 662.00,848.60 L 662.00 858.05 L 666.39 862.45 C668.08,864.14 669.64,865.38 671.20,866.28 ZM 708.41 852.55 C708.52,852.36 708.60,852.18 708.64,852.00 C708.80,851.17 709.82,848.03 710.90,845.00 C712.76,839.76 722.00,797.78 722.00,794.54 C722.00,793.30 723.35,793.00 728.88,793.00 L 734.02 793.00 L 730.18 793.20 C724.68,793.49 724.56,793.57 723.73,797.00 C721.79,804.99 717.34,826.03 716.33,832.00 C714.67,841.78 712.01,848.66 708.41,852.55 ZM 884.78 876.05 C886.77,875.30 888.03,874.36 888.45,873.28 C888.75,872.49 888.57,867.93 888.04,863.17 C887.51,858.40 886.61,848.88 886.04,842.00 C885.47,835.12 884.72,826.91 884.37,823.75 L 883.74 818.00 L 885.75 818.00 L 886.41 823.75 C887.05,829.40 888.39,846.55 889.61,864.69 L 890.23 873.88 L 886.65 875.37 C886.13,875.59 885.48,875.82 884.78,876.05 ZM 730.05 860.15 C731.01,855.94 733.29,844.72 735.11,835.22 L 738.42 817.94 L 747.65 818.17 C743.24,818.14 740.00,818.33 740.00,818.67 C740.00,819.07 739.08,824.15 737.96,829.95 C736.83,835.75 735.45,842.97 734.90,846.00 C734.34,849.03 733.49,852.85 733.02,854.50 C732.55,856.15 731.86,859.86 731.49,862.75 L 730.83 867.83 L 728.30 867.80 ZM 798.22 865.75 C798.46,864.51 800.64,853.51 803.05,841.31 C806.90,821.84 807.69,819.05 809.47,818.57 C810.18,818.38 812.87,818.21 816.34,818.11 C812.41,818.27 809.75,818.60 809.50,819.00 C809.16,819.55 808.43,822.37 807.89,825.25 C807.34,828.14 806.51,832.53 806.03,835.00 C805.56,837.47 804.69,842.20 804.10,845.50 C803.51,848.80 802.56,853.53 801.99,856.00 C801.42,858.47 800.68,862.19 800.35,864.25 L 799.78 867.76 C797.88,867.50 797.98,866.94 798.22,865.75 ZM 765.03 829.52 C769.35,825.48 772.88,829.08 771.67,836.81 C770.65,843.29 769.02,852.35 767.95,857.50 C767.38,860.25 766.65,863.74 766.34,865.25 L 765.80 867.86 C764.66,867.82 764.00,867.78 764.00,867.73 C764.00,867.58 765.12,862.08 766.48,855.50 C767.84,848.93 769.25,840.28 769.61,836.30 C770.18,830.05 770.04,828.95 768.60,828.40 C767.62,828.02 766.29,828.51 765.03,829.52 ZM 845.42 866.47 C842.32,864.13 840.00,860.31 840.02,857.11 C840.03,853.64 841.73,842.44 843.94,831.11 C844.38,828.87 844.76,826.85 844.92,825.91 C845.42,826.50 845.46,827.64 845.42,830.00 C845.37,832.47 844.59,838.33 843.68,843.00 C841.06,856.56 841.48,863.30 845.42,866.47 ZM 164.00 854.06 C164.00,855.13 164.35,856.00 164.77,856.00 C165.65,856.00 170.47,833.14 169.75,832.42 C169.11,831.78 165.99,844.86 166.00,848.19 C166.00,849.67 165.55,851.16 165.00,851.50 C164.45,851.84 164.00,852.99 164.00,854.06 ZM 812.63 809.93 C810.60,808.32 810.00,806.98 810.00,803.97 C810.00,801.68 810.64,799.55 811.55,798.79 C812.40,798.08 813.93,796.67 814.95,795.66 C815.48,795.14 816.26,794.70 817.21,794.34 C816.08,794.81 815.27,795.50 814.35,796.57 C811.49,799.91 811.20,806.03 813.75,809.53 C815.26,811.61 816.32,811.94 821.50,811.95 C824.41,811.96 827.04,811.52 829.27,810.73 C823.73,812.77 815.95,812.53 812.63,809.93 ZM 870.33 886.57 C870.64,885.79 871.17,883.59 871.53,881.70 C872.15,878.39 872.38,878.23 877.55,877.62 C878.70,877.49 879.77,877.32 880.76,877.14 C880.04,877.29 879.36,877.42 878.76,877.51 C874.80,878.11 874.33,878.49 873.22,882.07 C872.55,884.21 872.00,886.43 872.00,886.98 C872.00,887.79 876.62,888.10 881.79,887.94 C880.67,887.98 879.52,888.00 878.34,888.00 C871.34,888.00 869.89,887.74 870.33,886.57 ZM 841.62 825.00 L 841.50 825.00 C838.46,825.00 838.00,824.68 838.00,822.58 C838.00,818.97 839.01,817.00 840.87,817.00 C842.69,817.00 846.31,815.42 849.78,813.38 C846.39,815.41 842.89,817.00 841.26,817.00 C840.46,817.00 840.00,818.43 840.00,820.93 C840.00,823.85 840.18,824.65 841.62,825.00 ZM 582.00 848.00 C582.00,846.35 581.55,845.00 581.00,845.00 C579.89,845.00 579.62,849.29 580.67,850.33 C581.80,851.46 582.00,851.11 582.00,848.00 ZM 360.15 784.28 C361.18,779.34 361.87,774.65 361.75,773.39 L 361.75 773.39 C362.42,774.39 362.02,776.10 361.34,779.03 C361.25,779.43 361.15,779.86 361.04,780.31 C360.85,781.17 360.53,782.58 360.15,784.28 ZM 135.15 782.34 C135.94,778.98 136.21,777.29 136.01,776.53 C136.47,776.60 136.69,776.68 136.64,776.77 C136.50,777.01 135.93,779.13 135.15,782.34 ZM 462.00 853.27 C462.00,853.21 462.00,853.14 462.00,853.08 C462.00,851.48 462.26,849.34 462.58,848.33 C462.67,848.05 462.75,847.81 462.80,847.62 C462.65,848.60 462.50,849.63 462.38,850.60 C462.25,851.70 462.14,852.57 462.00,853.27 ZM 204.24 844.12 C204.64,841.69 205.43,839.18 206.07,838.42 C206.24,838.21 206.38,838.03 206.49,837.89 C205.48,839.80 204.66,842.08 204.24,844.12 ZM 676.61 868.10 C680.92,868.86 686.29,868.97 691.55,868.56 C685.96,869.05 680.40,868.96 676.61,868.10 ZM 564.37 794.86 C564.56,794.30 564.75,793.68 564.94,793.00 C565.60,790.70 566.54,787.73 567.10,786.13 C566.24,789.14 565.45,791.79 565.03,793.00 C564.89,793.40 564.66,794.04 564.37,794.86 ZM 897.76 885.26 C902.55,883.48 906.81,880.85 909.62,877.84 C906.56,881.11 902.64,883.58 897.76,885.26 ZM 206.84 822.00 C207.32,821.74 207.89,820.92 208.17,819.83 L 207.72 822.00 ZM 698.83 856.89 C701.39,856.64 704.33,855.61 706.32,854.40 C705.67,854.86 704.99,855.23 704.29,855.52 C702.33,856.34 700.49,856.79 698.83,856.89 ZM 761.44 835.24 C760.74,837.78 759.52,843.06 758.40,848.42 C759.86,841.44 760.68,837.64 761.44,835.24 ZM 830.75 794.16 C828.50,793.39 825.73,793.10 822.60,793.36 C820.97,793.49 819.73,793.64 818.72,793.87 C822.36,792.95 827.40,792.99 830.75,794.16 ZM 746.77 868.00 L 753.92 868.00 L 753.90 868.08 ZM 692.05 793.09 C696.76,793.20 699.00,793.51 699.00,794.02 C699.00,794.02 699.00,794.03 699.00,794.04 C698.97,793.56 696.57,793.24 692.05,793.09 ZM 693.04 855.37 C691.11,853.91 690.00,851.44 690.00,848.12 C690.00,851.28 691.14,853.84 693.04,855.37 ZM 494.98 860.51 L 495.00 860.50 C495.25,860.34 495.48,859.97 495.66,859.47 L 495.47 860.50 ZM 848.00 867.97 C847.45,867.74 846.91,867.46 846.39,867.13 C846.66,867.29 846.94,867.44 847.24,867.58 C847.96,867.90 848.75,868.16 849.75,868.34 C848.94,868.24 848.35,868.12 848.00,867.97 ZM 182.59 776.82 C182.80,777.05 182.78,777.35 182.68,777.73 C182.63,777.92 182.56,778.18 182.48,778.51 C182.58,777.87 182.62,777.27 182.59,776.82 ZM 836.87 802.79 C836.99,801.66 836.86,800.47 836.43,799.25 C836.40,799.16 836.37,799.08 836.34,799.00 C836.88,800.21 837.06,801.50 836.87,802.79 ZM 311.94 841.32 C311.91,840.92 311.86,840.65 311.79,840.50 C311.83,840.52 311.87,840.53 311.88,840.55 C311.94,840.61 311.96,840.88 311.94,841.32 Z" fill="rgb(13,171,230)"/>
<path d="M 676.38 868.05 C674.68,867.64 672.91,867.03 671.20,866.28 C669.64,865.38 668.08,864.14 666.39,862.45 L 662.00 858.05 L 662.00 848.60 C662.00,843.41 662.48,836.76 663.07,833.83 C663.65,830.90 664.57,826.03 665.11,823.00 C666.10,817.49 667.21,811.86 669.18,802.50 C670.11,798.03 670.42,795.65 671.76,794.39 C672.38,793.81 673.22,793.47 674.44,793.27 C677.04,793.16 680.38,793.08 684.00,793.05 C687.21,793.03 689.89,793.04 692.05,793.09 L 692.05 793.09 C696.57,793.24 698.97,793.56 699.00,794.04 C698.98,794.71 698.36,798.17 697.60,801.80 C693.59,820.90 690.00,842.80 690.00,848.12 C690.00,851.44 691.11,853.91 693.04,855.37 C694.32,856.41 695.95,856.98 697.82,856.95 C698.15,856.95 698.48,856.93 698.83,856.89 C700.49,856.79 702.33,856.34 704.29,855.52 C704.99,855.23 705.67,854.86 706.32,854.40 C707.29,853.80 708.04,853.16 708.41,852.55 C712.01,848.66 714.67,841.78 716.33,832.00 C717.34,826.03 721.79,804.99 723.73,797.00 C724.56,793.57 724.68,793.49 730.18,793.20 L 734.02 793.00 L 735.76 793.00 L 734.93 797.25 C734.48,799.59 732.50,809.83 730.53,820.00 C726.25,842.11 724.63,848.04 721.56,852.91 C718.87,857.16 713.32,862.26 708.90,864.55 C705.10,866.52 698.30,867.96 691.55,868.56 C686.29,868.97 680.92,868.86 676.61,868.10 C676.53,868.09 676.46,868.07 676.38,868.05 ZM 765.03 829.52 C763.74,830.56 762.52,832.16 761.85,833.92 C761.75,834.17 761.61,834.63 761.44,835.24 C760.68,837.64 759.86,841.44 758.40,848.42 C757.02,855.06 755.44,862.20 754.89,864.29 L 753.92 868.00 L 746.77 868.00 L 730.83 867.83 L 731.49 862.75 C731.86,859.86 732.55,856.15 733.02,854.50 C733.49,852.85 734.34,849.03 734.90,846.00 C735.45,842.97 736.83,835.75 737.96,829.95 C739.08,824.15 740.00,819.07 740.00,818.67 C740.00,818.33 743.24,818.14 747.65,818.17 L 749.85 818.22 C761.50,818.51 761.86,818.63 763.62,822.79 C763.69,822.95 766.12,821.60 769.03,819.79 C773.75,816.86 775.11,816.50 781.59,816.50 C789.71,816.50 792.99,818.14 796.34,823.85 C798.13,826.90 798.12,827.28 796.03,839.24 C794.85,845.98 793.50,853.08 793.03,855.00 C792.56,856.92 791.89,860.64 791.53,863.25 L 790.88 868.00 L 777.44 868.00 C772.48,868.00 768.13,867.94 765.80,867.86 L 766.34 865.25 C766.65,863.74 767.38,860.25 767.95,857.50 C769.02,852.35 770.65,843.29 771.67,836.81 C772.88,829.08 769.35,825.48 765.03,829.52 ZM 897.77 885.26 C893.26,886.81 887.96,887.70 881.79,887.94 C876.62,888.10 872.00,887.79 872.00,886.98 C872.00,886.43 872.55,884.21 873.22,882.07 C874.33,878.49 874.80,878.11 878.76,877.51 C879.36,877.42 880.04,877.29 880.76,877.14 C882.32,876.84 883.66,876.47 884.78,876.05 C885.48,875.82 886.13,875.59 886.65,875.37 L 890.23 873.88 L 889.61 864.69 C888.39,846.55 887.05,829.40 886.41,823.75 L 885.75 818.00 L 897.37 818.00 C909.68,818.00 911.00,818.17 911.01,819.75 C911.02,820.71 911.68,827.35 912.49,834.50 C913.30,841.65 913.97,847.88 913.98,848.33 C914.05,851.18 917.08,846.63 923.88,833.48 L 931.62 818.50 L 936.06 817.81 C938.50,817.44 941.71,817.35 943.19,817.63 L 945.89 818.13 L 943.30 822.82 C940.29,828.25 932.95,840.72 925.33,853.33 C922.40,858.19 920.00,862.34 920.00,862.56 C920.00,863.66 912.35,874.92 909.62,877.84 C906.56,881.11 902.64,883.58 897.77,885.26 ZM 841.62 825.00 C840.18,824.65 840.00,823.85 840.00,820.93 C840.00,818.43 840.46,817.00 841.26,817.00 C842.89,817.00 846.39,815.41 849.78,813.38 C853.15,811.41 856.38,809.02 857.71,807.22 C861.54,802.09 861.66,802.03 869.14,802.02 L 875.79 802.00 L 875.00 805.75 C874.57,807.81 873.92,811.19 873.56,813.25 L 872.91 817.00 L 882.12 817.00 L 881.81 820.75 C881.50,824.46 881.45,824.51 876.53,825.00 C874.71,825.18 873.53,825.17 872.66,825.68 C870.80,826.77 870.34,830.26 867.98,843.18 C865.11,858.84 865.23,859.37 871.50,860.00 C875.94,860.44 876.53,860.78 876.76,863.00 C877.25,867.71 876.11,868.17 862.88,868.61 C857.27,868.79 852.39,868.68 849.75,868.34 C848.75,868.16 847.96,867.90 847.24,867.58 C846.94,867.44 846.66,867.29 846.39,867.13 C846.06,866.93 845.73,866.71 845.42,866.47 C841.48,863.30 841.06,856.56 843.68,843.00 C844.59,838.33 845.37,832.47 845.42,830.00 C845.46,827.64 845.42,826.50 844.92,825.91 C844.97,825.60 845.00,825.41 845.00,825.36 C845.00,825.17 843.49,825.01 841.62,825.00 ZM 810.82 868.00 C804.71,868.00 801.46,868.00 799.78,867.76 L 800.35 864.25 C800.68,862.19 801.42,858.47 801.99,856.00 C802.56,853.53 803.51,848.80 804.10,845.50 C804.69,842.20 805.56,837.47 806.03,835.00 C806.51,832.53 807.34,828.14 807.89,825.25 C808.43,822.37 809.16,819.55 809.50,819.00 C809.75,818.60 812.41,818.27 816.34,818.11 C818.30,818.05 820.51,818.02 822.75,818.01 C831.43,818.00 834.00,818.30 834.00,819.32 C834.00,821.51 825.13,865.99 824.48,867.03 C824.14,867.58 818.16,868.00 810.82,868.00 ZM 830.75 794.16 C831.19,794.31 831.61,794.49 831.99,794.69 C834.14,795.81 835.59,797.32 836.34,799.00 C836.37,799.08 836.40,799.16 836.43,799.25 C836.86,800.47 836.99,801.66 836.87,802.79 C836.50,805.35 834.69,807.89 831.48,809.71 C830.81,810.10 830.06,810.43 829.27,810.73 L 829.27 810.73 C827.04,811.52 824.41,811.96 821.50,811.95 C816.32,811.94 815.26,811.61 813.75,809.53 C811.20,806.03 811.49,799.91 814.35,796.57 C815.27,795.50 816.08,794.81 817.21,794.34 C817.67,794.16 818.18,794.00 818.72,793.87 L 818.72 793.87 C819.73,793.64 820.97,793.49 822.60,793.36 C825.73,793.10 828.50,793.39 830.75,794.16 ZM 281.37 825.29 C282.09,824.57 282.15,826.87 281.67,829.82 C281.56,830.31 281.45,830.81 281.34,831.32 C281.19,832.03 281.04,832.71 280.91,833.38 L 280.87 833.50 C280.26,835.70 279.47,840.65 279.11,844.50 C278.69,849.04 278.24,850.71 277.82,849.26 C276.93,846.11 279.78,826.89 281.37,825.29 ZM 360.15 784.28 C359.51,787.11 358.70,790.74 357.98,794.00 C357.85,794.59 357.71,795.21 357.56,795.86 C357.40,795.95 357.21,796.00 357.00,796.00 C356.45,796.00 356.00,795.13 356.00,794.06 C356.00,792.99 356.45,791.84 357.00,791.50 C357.55,791.16 358.00,789.79 358.00,788.46 C358.00,787.12 358.44,784.11 358.98,781.76 C359.53,779.42 360.27,776.15 360.64,774.50 C360.83,773.68 361.00,773.12 361.15,772.83 C361.41,772.99 361.61,773.17 361.75,773.39 C361.87,774.65 361.18,779.34 360.15,784.28 ZM 135.15 782.34 C134.52,784.90 133.76,788.15 132.95,791.69 C132.69,792.83 132.47,793.81 132.31,794.50 C131.75,797.04 131.14,798.04 130.65,797.24 C130.22,796.55 130.31,794.53 130.85,792.74 C131.38,790.96 132.31,787.89 132.91,785.93 C133.51,783.96 134.00,780.93 134.00,779.18 C134.00,777.86 134.22,776.90 134.61,776.39 C135.20,776.43 135.67,776.48 136.01,776.53 C136.21,777.29 135.94,778.98 135.15,782.34 ZM 175.61 806.28 C175.78,806.45 175.65,807.83 175.33,809.82 C174.28,814.60 173.14,819.88 172.02,825.07 C171.52,826.88 171.10,828.16 170.84,828.45 C170.36,828.99 170.00,828.27 170.00,826.76 C170.00,825.31 170.45,823.84 171.00,823.50 C171.55,823.16 172.00,821.25 172.00,819.26 C172.00,817.27 172.51,814.04 173.14,812.07 C173.77,810.11 174.45,807.87 174.66,807.11 C174.88,806.34 175.30,805.97 175.61,806.28 ZM 164.00 854.06 C164.00,852.99 164.45,851.84 165.00,851.50 C165.55,851.16 166.00,849.67 166.00,848.19 C165.99,844.86 169.11,831.78 169.75,832.42 C170.47,833.14 165.65,856.00 164.77,856.00 C164.35,856.00 164.00,855.13 164.00,854.06 ZM 564.37 794.86 C564.19,795.35 563.99,795.91 563.78,796.51 C562.75,799.08 562.00,799.42 562.00,796.90 C562.00,795.53 562.37,793.97 562.83,793.45 C563.28,792.93 564.23,790.47 564.94,788.00 C567.08,780.56 567.18,780.35 567.72,781.80 C567.88,782.24 567.86,783.11 567.69,784.05 C567.49,784.75 567.29,785.45 567.10,786.13 C566.54,787.73 565.60,790.70 564.94,793.00 C564.75,793.68 564.56,794.30 564.37,794.86 ZM 618.02 842.69 C618.03,838.48 618.30,837.05 618.93,837.89 C619.94,840.03 620.01,842.43 619.55,845.53 C619.19,847.89 618.44,849.94 617.23,851.72 C616.56,852.43 616.00,852.35 616.00,851.06 C616.00,850.54 616.45,849.84 617.00,849.50 C617.55,849.16 618.01,846.10 618.02,842.69 ZM 204.24 844.12 C204.14,844.60 204.06,845.07 204.01,845.52 C203.63,847.52 203.11,848.78 202.75,848.42 C200.77,846.43 202.95,838.62 205.78,837.53 C206.45,837.28 206.76,837.21 206.75,837.40 C206.66,837.56 206.58,837.72 206.49,837.89 C206.38,838.03 206.24,838.21 206.07,838.42 C205.43,839.18 204.64,841.69 204.24,844.12 ZM 426.84 836.00 C427.17,836.00 427.44,837.75 427.56,840.27 C427.29,842.67 427.31,845.14 427.56,847.24 C427.53,849.48 427.48,851.00 427.44,851.00 C427.38,851.00 427.03,850.70 426.67,850.33 C425.69,849.36 425.85,836.00 426.84,836.00 ZM 468.85 822.30 C468.91,823.71 468.55,825.63 468.03,827.39 C467.41,829.00 466.52,830.54 465.38,831.96 C465.20,831.73 465.30,830.60 465.62,829.25 C465.98,827.74 466.62,826.05 467.05,825.50 C467.47,824.95 468.02,823.15 468.26,821.50 C468.65,818.81 468.72,818.90 468.85,822.30 ZM 462.00 853.27 C461.74,854.53 461.40,855.24 460.64,855.81 C460.26,855.39 460.00,854.37 460.00,853.19 C460.00,851.65 460.71,849.51 461.58,848.44 C462.44,847.39 462.82,846.96 462.87,847.13 C462.85,847.29 462.82,847.45 462.80,847.62 C462.75,847.81 462.67,848.05 462.58,848.33 C462.26,849.34 462.00,851.48 462.00,853.08 C462.00,853.14 462.00,853.21 462.00,853.27 ZM 120.35 852.03 C120.32,852.21 120.28,852.40 120.24,852.59 C120.04,853.50 119.85,854.35 119.67,855.13 C119.41,856.24 119.13,857.29 118.92,858.00 C118.29,860.11 118.16,859.87 118.12,856.50 C118.09,854.30 118.73,851.62 119.55,850.53 C120.93,848.71 120.99,848.81 120.35,852.03 ZM 536.40 813.08 C536.56,813.44 536.60,814.03 536.54,814.72 C536.32,815.84 536.01,817.13 535.60,818.62 C535.26,819.44 534.87,820.00 534.52,820.00 C534.24,820.00 534.04,819.21 534.10,818.25 C534.15,817.29 534.54,815.38 534.96,814.00 C535.56,812.03 535.87,811.83 536.40,813.08 ZM 621.00 809.50 C621.53,809.17 621.84,810.03 621.94,811.30 L 621.67 813.90 C621.59,814.67 621.51,815.38 621.44,816.02 C621.32,816.40 621.17,816.74 621.00,817.00 C620.29,818.10 620.03,817.38 620.02,814.31 C620.01,812.00 620.45,809.84 621.00,809.50 ZM 561.50 802.75 L 560.04 806.71 C559.63,807.48 559.23,808.00 558.92,808.00 C558.42,808.00 558.00,807.77 558.00,807.49 C558.00,807.20 558.42,806.19 558.93,805.24 C559.44,804.28 560.12,802.65 560.45,801.61 C560.78,800.57 561.31,799.97 561.62,800.29 C561.90,800.56 561.81,801.50 561.54,802.63 ZM 310.19 852.49 C310.18,852.63 310.16,852.76 310.14,852.88 C309.96,853.77 309.77,854.59 309.60,855.31 C308.86,857.43 307.88,857.04 308.18,853.43 C308.36,851.35 308.97,849.50 309.55,849.31 C310.20,849.10 310.45,850.31 310.19,852.49 ZM 315.55 816.00 C316.23,814.84 316.60,814.25 316.73,814.36 C316.59,815.76 316.34,817.59 315.99,819.49 C315.18,822.78 313.99,824.04 314.04,820.95 C314.05,819.60 314.74,817.38 315.55,816.00 ZM 581.00 845.00 C581.55,845.00 582.00,846.35 582.00,848.00 C582.00,851.11 581.80,851.46 580.67,850.33 C579.62,849.29 579.89,845.00 581.00,845.00 ZM 180.54 779.75 C180.90,778.05 181.20,776.96 181.49,776.38 C182.08,776.49 182.41,776.63 182.59,776.82 C182.62,777.27 182.58,777.87 182.48,778.51 C182.29,779.28 182.02,780.38 181.74,781.57 C181.44,782.41 181.10,783.00 180.81,783.00 C180.24,783.00 180.13,781.65 180.54,779.75 ZM 354.38 809.50 C354.29,810.03 354.21,810.51 354.14,810.93 C354.05,811.31 353.97,811.66 353.89,812.00 L 353.57 813.38 C353.24,814.25 352.92,813.95 352.45,812.73 C352.12,811.87 352.56,809.89 353.43,808.33 L 355.02 805.50 ZM 311.94 841.32 C311.89,842.32 311.65,844.20 311.32,846.34 C311.22,846.60 311.11,846.83 311.00,847.00 C310.26,848.15 310.03,847.80 310.03,845.50 C310.03,843.85 310.47,841.83 311.00,841.00 C311.19,840.70 311.35,840.50 311.48,840.41 C311.62,840.44 311.72,840.47 311.79,840.50 C311.86,840.65 311.91,840.92 311.94,841.32 ZM 501.00 826.50 C501.89,825.95 502.16,827.86 501.82,829.74 C501.71,830.12 501.61,830.52 501.50,830.94 C501.37,831.33 501.20,831.69 501.00,832.00 C500.26,833.14 500.03,832.74 500.02,830.31 C500.01,828.55 500.45,826.84 501.00,826.50 ZM 345.32 848.15 C345.97,847.61 346.29,847.54 346.36,848.11 C345.98,849.93 345.67,851.50 345.40,852.84 C344.74,854.07 344.00,853.89 344.00,851.68 C344.00,850.34 344.60,848.75 345.32,848.15 ZM 429.32 823.15 C430.15,822.46 430.44,822.54 430.36,823.74 C430.16,824.49 430.04,825.18 430.03,825.75 C430.03,825.81 430.03,825.87 430.03,825.93 C429.40,828.41 428.00,828.84 428.00,826.12 C428.00,825.09 428.60,823.75 429.32,823.15 ZM 347.00 839.00 C347.61,839.00 347.90,839.70 347.90,840.75 L 347.23 843.92 C347.16,844.11 347.08,844.31 347.00,844.50 C346.31,846.10 346.13,845.76 346.07,842.75 C346.03,840.69 346.45,839.00 347.00,839.00 ZM 206.84 822.00 L 206.27 822.00 C206.10,821.86 206.00,821.57 206.00,821.08 C206.00,819.47 207.19,817.00 207.97,817.00 C208.37,817.00 208.50,818.04 208.27,819.35 L 208.17 819.83 C207.89,820.92 207.32,821.74 206.84,822.00 ZM 494.98 860.51 L 494.54 860.52 C494.22,860.31 494.00,859.61 494.00,858.62 C494.00,857.24 494.45,855.84 495.00,855.50 C495.56,855.15 496.00,855.97 496.00,857.38 C496.00,857.47 496.00,857.55 495.99,857.64 L 495.66 859.47 C495.48,859.97 495.25,860.34 495.00,860.50 ZM 179.97 789.00 C179.97,789.04 179.97,789.09 179.97,789.13 C179.65,790.47 179.35,791.78 179.11,792.82 C179.07,792.88 179.04,792.94 179.00,793.00 C178.23,794.19 178.03,793.98 178.03,792.00 C178.03,790.62 178.47,788.83 179.00,788.00 C179.77,786.81 179.97,787.02 179.97,789.00 ZM 433.25 816.50 C432.76,817.50 432.19,818.86 431.90,819.70 C431.72,820.07 431.56,820.44 431.40,820.81 C431.19,820.96 430.95,820.72 430.56,820.10 C430.05,819.28 430.58,818.01 431.99,816.65 C434.09,814.63 434.17,814.63 433.25,816.50 ZM 533.00 822.50 C533.79,822.01 534.09,823.09 533.91,824.44 L 533.30 826.47 C533.21,826.65 533.11,826.83 533.00,827.00 C532.24,828.17 532.03,827.91 532.02,825.81 C532.01,824.33 532.45,822.84 533.00,822.50 ZM 243.97 836.42 C243.73,837.69 243.48,838.99 243.22,840.29 C243.15,840.38 243.08,840.45 243.00,840.50 C242.45,840.84 242.01,840.30 242.02,839.31 C242.02,838.31 242.47,836.83 243.00,836.00 C243.65,834.99 243.90,835.04 243.97,836.42 ZM 130.00 804.30 C130.00,804.40 130.00,804.51 130.00,804.60 C129.80,805.44 129.62,806.21 129.46,806.92 C129.16,807.04 128.77,806.55 128.34,805.43 C128.01,804.57 128.24,803.36 128.87,802.73 C129.71,801.89 130.00,802.29 130.00,804.30 ZM 351.00 819.50 C351.46,819.22 351.85,819.61 351.97,820.39 C351.72,821.53 351.54,822.39 351.43,823.03 C351.30,823.24 351.15,823.40 351.00,823.50 C350.45,823.84 350.00,823.22 350.00,822.12 C350.00,821.02 350.45,819.84 351.00,819.50 ZM 462.02 843.75 C462.01,842.65 462.24,841.70 462.58,841.26 C464.07,841.53 463.93,842.10 463.62,843.25 C463.54,843.53 463.46,843.91 463.36,844.37 C463.26,844.58 463.14,844.79 463.00,845.00 C462.24,846.17 462.03,845.89 462.02,843.75 ZM 239.96 855.13 C239.80,855.78 239.64,856.39 239.48,856.94 C239.25,857.00 238.92,856.68 238.50,856.01 C238.17,855.46 238.35,854.22 238.92,853.26 C239.79,851.75 239.94,851.89 239.97,854.25 C239.97,854.57 239.97,854.87 239.96,855.13 ZM 497.00 847.50 C497.45,847.22 497.74,847.33 497.87,847.67 C497.70,848.56 497.53,849.46 497.35,850.39 C497.25,850.60 497.13,850.80 497.00,851.00 C496.21,852.22 496.03,852.09 496.02,850.31 C496.01,849.10 496.45,847.84 497.00,847.50 ZM 125.00 825.00 C125.17,825.00 125.33,825.04 125.45,825.11 C125.44,825.31 125.44,825.52 125.43,825.75 C125.42,826.22 125.25,827.40 124.96,829.06 C124.24,830.16 124.03,829.86 124.02,827.75 C124.01,826.24 124.45,825.00 125.00,825.00 ZM 503.81 821.23 C504.31,821.06 504.57,821.22 504.57,821.65 C504.33,822.14 504.08,822.71 503.83,823.34 C502.96,824.30 501.75,824.25 502.23,822.81 C502.45,822.16 503.16,821.45 503.81,821.23 ZM 245.76 825.43 C245.58,826.89 245.31,828.70 244.98,830.72 C244.79,830.49 244.60,830.11 244.38,829.56 C244.08,828.77 244.31,827.31 244.89,826.31 C245.34,825.53 245.61,825.20 245.76,825.43 Z" fill="rgb(226,119,17)"/>
<path d="M 393.26 683.75 C392.72,683.06 392.00,678.78 391.67,674.24 C389.95,650.88 380.18,638.01 339.50,605.49 C308.55,580.76 291.87,562.80 271.70,532.50 C262.67,518.94 252.83,499.43 250.54,490.54 C249.23,485.45 249.00,474.29 249.00,414.24 L 249.00 343.91 L 251.45 341.45 C259.50,333.41 273.45,345.39 278.38,364.57 C281.21,375.57 286.01,420.03 285.99,435.02 C285.98,439.69 285.30,445.98 284.47,449.00 C278.79,469.68 283.23,486.67 300.16,509.03 C321.76,537.55 344.99,560.50 359.78,567.93 C367.09,571.59 367.83,568.93 362.50,558.28 C359.84,552.96 355.28,547.27 343.38,534.40 C314.93,503.65 303.24,489.30 299.66,480.73 C294.56,468.52 298.33,456.96 307.38,457.02 C313.86,457.07 318.97,460.69 333.91,475.84 C357.79,500.05 367.68,507.22 399.00,523.05 C409.73,528.47 422.74,535.65 427.91,539.02 C455.73,557.10 471.29,575.85 479.98,601.77 C484.99,616.74 486.18,626.02 486.74,654.78 C487.21,679.01 487.11,681.22 485.47,683.03 C483.75,684.93 482.18,685.00 438.97,685.00 C404.38,685.00 394.02,684.72 393.26,683.75 ZM 539.58 683.68 C537.89,682.45 537.81,680.50 538.30,653.43 C538.85,622.69 539.53,617.07 544.60,601.52 C552.29,577.97 569.55,556.96 595.11,540.05 C601.69,535.69 615.42,527.99 625.62,522.94 C644.11,513.78 658.04,505.37 667.50,497.66 C670.25,495.42 679.95,486.27 689.05,477.33 C705.87,460.82 711.13,457.07 717.53,457.02 C724.00,456.97 727.74,463.14 726.67,472.14 C725.22,484.39 717.62,494.68 680.99,534.00 C667.04,548.97 662.61,554.89 659.79,562.31 C658.11,566.73 658.06,567.49 659.37,568.80 C660.68,570.11 661.41,569.95 665.67,567.48 C678.57,559.99 694.10,545.32 712.74,523.02 C725.85,507.34 735.57,492.84 738.77,484.18 C742.38,474.43 742.89,461.30 740.11,449.67 C737.46,438.57 737.47,437.14 740.53,405.00 C743.45,374.38 745.70,362.08 749.97,353.41 C755.35,342.49 764.64,336.60 770.93,340.13 C776.14,343.06 776.03,341.31 775.74,417.00 L 775.47 487.50 L 773.14 493.95 C767.99,508.25 757.67,526.43 744.30,544.74 C725.75,570.16 713.26,582.83 682.46,607.48 C644.21,638.09 634.46,651.19 632.41,674.71 C632.04,678.99 631.29,683.06 630.75,683.75 C629.26,685.62 542.15,685.56 539.58,683.68 ZM 402.73 504.99 C356.10,478.05 333.44,447.06 322.09,394.68 C317.03,371.31 316.77,366.40 316.29,283.33 C315.77,193.57 314.83,201.86 325.62,200.55 C386.75,193.16 453.76,171.57 496.50,145.48 C502.55,141.79 508.67,138.06 510.09,137.20 C512.62,135.68 512.98,135.82 523.59,142.50 C566.91,169.74 626.21,189.95 689.61,199.07 C699.33,200.46 705.13,201.76 706.31,202.81 C708.03,204.34 708.10,208.19 707.75,283.46 C707.43,351.95 707.15,364.10 705.64,374.50 C698.66,422.66 684.86,452.77 658.07,478.24 C648.28,487.54 629.14,501.36 618.74,506.63 L 613.50 509.28 L 618.26 503.89 C630.55,489.98 639.53,478.91 644.88,471.06 C666.74,439.05 680.56,400.42 683.98,361.78 C684.53,355.58 684.99,321.67 684.99,286.42 L 685.00 222.35 L 676.75 221.12 C621.91,212.99 565.17,193.76 520.94,168.31 L 512.37 163.38 L 502.94 168.79 C475.65,184.44 440.86,198.55 403.65,209.06 C389.31,213.12 355.30,220.33 344.68,221.57 L 338.86 222.25 L 339.26 292.37 C339.63,357.77 339.80,363.38 341.76,375.50 C349.66,424.23 370.24,465.73 404.38,501.75 C408.16,505.74 410.86,508.98 410.38,508.95 C409.89,508.92 406.45,507.14 402.73,504.99 ZM 413.12 391.44 C381.69,359.59 380.00,357.69 380.00,354.19 C380.00,350.68 381.61,348.90 413.29,317.25 C452.03,278.57 449.64,280.03 458.86,289.36 C462.96,293.51 464.08,295.31 463.83,297.29 C463.60,299.07 455.41,308.17 437.09,327.00 L 410.69 354.14 L 437.34 380.86 C457.91,401.48 464.00,408.15 464.00,410.07 C464.00,413.60 452.42,425.00 448.84,425.00 C446.74,425.00 439.79,418.47 413.12,391.44 ZM 566.09 418.51 C561.01,413.22 559.98,411.61 560.53,409.76 C560.89,408.52 573.18,395.47 587.83,380.76 L 614.47 354.02 L 587.23 326.72 C567.62,307.05 560.00,298.78 560.00,297.15 C560.00,295.79 562.06,292.70 565.15,289.44 C569.53,284.81 570.83,284.00 573.90,284.00 C577.31,284.00 579.38,285.87 610.96,317.46 C642.45,348.96 644.40,351.12 644.40,354.50 C644.40,357.88 642.45,360.04 610.96,391.54 C584.20,418.31 576.99,425.00 574.91,425.00 C573.03,425.00 570.62,423.23 566.09,418.51 Z" fill="rgb(239,232,222)"/>
</g>
</svg>